<svg width="20" height="27" viewBox="0 0 20 27" fill="none" xmlns="http://www.w3.org/2000/svg">
<path d="M17.3333 6.25H15.1667C15.1667 2.75 12.7833 0 9.75 0C6.71667 0 4.33333 2.75 4.33333 6.25H2.16667C0.975 6.25 0 7.375 0 8.75V23.75C0 25.125 0.975 26.25 2.16667 26.25H17.3333C18.525 26.25 19.5 25.125 19.5 23.75V8.75C19.5 7.375 18.525 6.25 17.3333 6.25ZM9.75 2.5C11.5917 2.5 13 4.125 13 6.25H6.5C6.5 4.125 7.90833 2.5 9.75 2.5ZM17.3333 23.75H2.16667V8.75H17.3333V23.75ZM9.75 13.75C7.90833 13.75 6.5 12.125 6.5 10H4.33333C4.33333 13.5 6.71667 16.25 9.75 16.25C12.7833 16.25 15.1667 13.5 15.1667 10H13C13 12.125 11.5917 13.75 9.75 13.75Z" fill="black"/>
</svg>
