<svg width="57" height="67" viewBox="0 0 57 67" fill="none" xmlns="http://www.w3.org/2000/svg">
<path d="M44.557 36.8384L34 47.7944H19.8333V44.1179H31.3508C31.6071 44.1177 31.8585 44.0273 32.0783 43.8564C32.2981 43.6855 32.4781 43.4404 32.599 43.1473C32.72 42.8541 32.7774 42.5239 32.7652 42.1918C32.7529 41.8597 32.6715 41.5381 32.5295 41.2612L30.0135 36.3642C29.4974 35.3561 28.797 34.5294 27.9749 33.9579C27.1527 33.3863 26.2344 33.0876 25.3017 33.0884H2.83333C2.08189 33.0884 1.36122 33.4757 0.829864 34.1652C0.298511 34.8547 0 35.7898 0 36.7649V58.8238C0 60.774 0.597022 62.6442 1.65973 64.0232C2.72243 65.4021 4.16377 66.1768 5.66667 66.1768H32.9772C34.1887 66.1772 35.3864 65.8414 36.4898 65.1922C37.5932 64.5429 38.5768 63.595 39.3748 62.4121L56.6667 36.7649L52.5527 34.9855C51.2067 34.4033 49.7698 34.2679 48.3731 34.5915C46.9764 34.9152 45.6645 35.6877 44.557 36.8384ZM48.8977 16.1398C50.1755 14.4302 50.966 12.0662 50.966 9.45593C50.966 6.84562 50.1755 4.48164 48.8977 2.77207C48.2514 1.89699 47.4756 1.20036 46.6168 0.724003C45.7579 0.247646 44.8337 0.0013847 43.8997 2.36826e-07C43.8997 2.36826e-07 40.375 -0.01103 36.8333 4.72796C33.2917 -0.01103 29.767 2.36826e-07 29.767 2.36826e-07C28.8333 0.00154105 27.9093 0.247512 27.0506 0.723193C26.1918 1.19887 25.4158 1.89449 24.769 2.7684C23.4912 4.48164 22.7007 6.84195 22.7007 9.45225C22.7007 12.0626 23.4912 14.4302 24.769 16.1361L36.8333 33.0884L48.8977 16.1398Z" fill="black"/>
</svg>
