<svg width="357" height="365" viewBox="0 0 357 365" fill="none" xmlns="http://www.w3.org/2000/svg">
<g filter="url(#filter0_f_162_22)">
<ellipse cx="178.5" cy="182.5" rx="78.5" ry="82.5" fill="white"/>
</g>
<path d="M140 208.092C144.95 203.632 150.703 200.119 157.259 197.553C163.815 194.988 170.895 193.703 178.5 193.7C186.108 193.7 193.19 194.984 199.746 197.553C206.302 200.122 212.054 203.635 217 208.092V143.2H140V208.092ZM178.5 183.6C173.183 183.6 168.646 181.875 164.888 178.424C161.129 174.973 159.25 170.807 159.25 165.925C159.25 161.043 161.129 156.877 164.888 153.426C168.646 149.975 173.183 148.25 178.5 148.25C183.817 148.25 188.354 149.975 192.113 153.426C195.871 156.877 197.75 161.043 197.75 165.925C197.75 170.807 195.871 174.973 192.113 178.424C188.354 181.875 183.817 183.6 178.5 183.6ZM140 224C136.975 224 134.385 223.01 132.229 221.031C130.073 219.051 128.996 216.674 129 213.9V143.2C129 140.423 130.078 138.044 132.234 136.064C134.39 134.085 136.979 133.097 140 133.1H145.5V128.05C145.5 126.619 146.028 125.419 147.084 124.449C148.14 123.48 149.445 122.997 151 123C152.558 123 153.866 123.485 154.922 124.454C155.978 125.424 156.504 126.623 156.5 128.05V133.1H200.5V128.05C200.5 126.619 201.028 125.419 202.084 124.449C203.14 123.48 204.445 122.997 206 123C207.558 123 208.865 123.485 209.921 124.454C210.977 125.424 211.504 126.623 211.5 128.05V133.1H217C220.025 133.1 222.615 134.09 224.771 136.069C226.927 138.049 228.004 140.426 228 143.2V213.9C228 216.677 226.922 219.056 224.766 221.036C222.61 223.015 220.021 224.003 217 224H140Z" fill="black"/>
<defs>
<filter id="filter0_f_162_22" x="0" y="0" width="357" height="365" filterUnits="userSpaceOnUse" color-interpolation-filters="sRGB">
<feFlood flood-opacity="0" result="BackgroundImageFix"/>
<feBlend mode="normal" in="SourceGraphic" in2="BackgroundImageFix" result="shape"/>
<feGaussianBlur stdDeviation="50" result="effect1_foregroundBlur_162_22"/>
</filter>
</defs>
</svg>
