<svg width="47" height="46" viewBox="0 0 47 46" fill="none" xmlns="http://www.w3.org/2000/svg">
<path d="M36.5921 38.6625L25.9121 28.1625C24.9586 28.9125 23.862 29.5062 22.6223 29.9437C21.3827 30.3812 20.0636 30.6 18.665 30.6C15.2004 30.6 12.2685 29.42 9.86934 27.06C7.47017 24.7 6.26995 21.8175 6.26868 18.4125C6.26868 15.0062 7.4689 12.1237 9.86934 9.76498C12.2698 7.40623 15.2017 6.22623 18.665 6.22498C22.1296 6.22498 25.0615 7.40498 27.4607 9.76498C29.8599 12.125 31.0601 15.0075 31.0614 18.4125C31.0614 19.7875 30.8389 21.0844 30.3939 22.3031C29.9489 23.5219 29.345 24.6 28.5821 25.5375L39.3097 36.0844C39.6594 36.4281 39.8342 36.85 39.8342 37.35C39.8342 37.85 39.6435 38.2875 39.262 38.6625C38.9124 39.0062 38.4674 39.1781 37.9271 39.1781C37.3867 39.1781 36.9417 39.0062 36.5921 38.6625ZM18.665 26.85C21.0489 26.85 23.0756 26.0294 24.745 24.3881C26.4143 22.7469 27.2484 20.755 27.2471 18.4125C27.2471 16.0687 26.4124 14.0762 24.7431 12.435C23.0737 10.7937 21.0477 9.97373 18.665 9.97498C16.2811 9.97498 14.2545 10.7956 12.5851 12.4369C10.9157 14.0781 10.0817 16.07 10.0829 18.4125C10.0829 20.7562 10.9176 22.7487 12.587 24.39C14.2564 26.0312 16.2824 26.8512 18.665 26.85Z" fill="black" fill-opacity="0.7"/>
</svg>
