<svg width="14" height="17" viewBox="0 0 14 17" fill="none" xmlns="http://www.w3.org/2000/svg">
<path d="M2.4 6.59244H3.99V11.5924C3.99 12.1424 4.44 12.5924 4.99 12.5924H8.99C9.54 12.5924 9.99 12.1424 9.99 11.5924V6.59244H11.58C12.47 6.59244 12.92 5.51244 12.29 4.88244L7.7 0.292444C7.60749 0.19974 7.4976 0.126193 7.37662 0.0760114C7.25565 0.02583 7.12597 0 6.995 0C6.86403 0 6.73435 0.02583 6.61338 0.0760114C6.4924 0.126193 6.38251 0.19974 6.29 0.292444L1.7 4.88244C1.07 5.51244 1.51 6.59244 2.4 6.59244ZM0 15.5924C0 16.1424 0.45 16.5924 1 16.5924H13C13.55 16.5924 14 16.1424 14 15.5924C14 15.0424 13.55 14.5924 13 14.5924H1C0.45 14.5924 0 15.0424 0 15.5924Z" fill="black"/>
</svg>
